<svg width="30" height="22" viewBox="0 0 30 22" fill="none" xmlns="http://www.w3.org/2000/svg">
<path d="M29.2589 12.2676L29.2615 12.2663L29.2474 12.2427C29.1274 12.0103 28.9928 11.7882 28.8472 11.5731L22.0015 0.128418L18.4506 2.18757L19.0838 3.30395L21.556 1.86969L25.9583 9.22863C25.2428 8.93948 24.4315 9.10544 23.6177 9.10544C21.3855 9.10544 19.6404 9.85863 18.5113 11.6586H11.4894C10.3602 9.85863 8.61574 9.10544 6.38298 9.10544C5.56851 9.10544 4.73234 8.93948 4.01681 9.22927L8.41915 1.86969L10.8913 3.30395L11.5245 2.18757L7.97362 0.128418L1.12723 11.5737C0.981702 11.7876 0.84766 12.0097 0.72766 12.2414L0.715532 12.2669C0.251489 13.1739 0 14.395 0 15.4884C0 19.0846 2.8883 21.8714 6.38298 21.8714C9.87766 21.8714 12.766 19.0846 12.766 15.4884C12.766 14.7014 12.3772 13.6348 12.1277 12.9352H17.8723C17.6228 13.6348 17.234 14.7014 17.234 15.4884C17.234 19.0846 20.1223 21.8714 23.617 21.8714C27.1117 21.8714 30 19.0846 30 15.4884C30 14.395 29.7236 13.1739 29.2589 12.2676ZM6.38298 20.5948C3.58979 20.5948 1.2766 18.3748 1.2766 15.4884C1.2766 14.6114 1.47 13.5939 1.84085 12.8669L2.19574 12.2733C3.11489 10.938 4.68 10.3814 6.38298 10.3814C9.17617 10.3814 11.4894 12.6014 11.4894 15.4878C11.4894 18.3754 9.17617 20.5948 6.38298 20.5948ZM23.617 20.5948C20.8238 20.5948 18.5106 18.3748 18.5106 15.4884C18.5106 12.602 20.8238 10.382 23.617 10.382C25.3194 10.382 26.8602 10.938 27.7787 12.2733L28.1336 12.8669C28.5045 13.5946 28.7234 14.6114 28.7234 15.4884C28.7234 18.3754 26.4102 20.5948 23.617 20.5948Z" fill="white"/>
</svg>
