<svg width="35" height="35" viewBox="0 0 35 35" fill="none" xmlns="http://www.w3.org/2000/svg">
<path d="M17.4996 35C27.1644 35 34.9992 27.165 34.9992 17.5C34.9992 7.83502 27.1644 0 17.4996 0C7.83484 0 0 7.83502 0 17.5C0 27.165 7.83484 35 17.4996 35Z" fill="#1976D2"/>
<path d="M11.6902 12.6138H9.89074C9.37597 12.6138 9.27344 12.8562 9.27344 13.1236C9.27344 13.5997 9.88332 15.9639 12.115 19.0917C13.6021 21.2272 15.6989 22.3844 17.6058 22.3844C18.7504 22.3844 18.8916 22.1282 18.8916 21.6846V20.0714C18.8916 19.5565 19.0003 19.4541 19.3627 19.4541C19.6289 19.4541 20.0874 19.5877 21.1546 20.6174C22.3755 21.837 22.5767 22.3844 23.264 22.3844H25.0634C25.5782 22.3844 25.8356 22.1282 25.6869 21.6208C25.5245 21.1148 24.9422 20.3812 24.1686 19.5115C23.7487 19.0154 23.119 18.4819 22.929 18.2145C22.6616 17.8708 22.7379 17.7183 22.929 17.4135C22.929 17.4135 25.1221 14.3244 25.3508 13.276C25.4657 12.8949 25.3508 12.6138 24.8072 12.6138H23.0065C22.5491 12.6138 22.338 12.8562 22.223 13.1236C22.223 13.1236 21.3071 15.3542 20.01 16.8036C19.5914 17.2223 19.4002 17.356 19.1715 17.356C19.0566 17.356 18.8916 17.2223 18.8916 16.8411V13.276C18.8916 12.8187 18.7591 12.6138 18.3768 12.6138H15.5477C15.2616 12.6138 15.0904 12.8261 15.0904 13.0273C15.0904 13.4623 15.7389 13.5622 15.8051 14.7818V17.4322C15.8051 18.0133 15.7002 18.1195 15.4715 18.1195C14.8616 18.1195 13.3771 15.8777 12.4962 13.3136C12.3238 12.815 12.15 12.6138 11.6902 12.6138Z" fill="white"/>
</svg>
