<svg style="display: none;" aria-hidden="true" xmlns="http://www.w3.org/2000/svg" xmlns:xlink="http://www.w3.org/1999/xlink"><symbol viewBox="0 0 9 14" fill="none" id="svg-arrow-r"><path d="M1.65625 13L7.3131 7.34315L1.65625 1.68629" stroke="#0E8FF5" stroke-width="2" stroke-linecap="round" stroke-linejoin="round"/></symbol><symbol viewBox="0 0 1920 486" fill="none" id="svg-bg-svg"><path d="M1512.05 222.833C1505.82 227.131 1479.17 246.952 1502.12 246.729 1510.57 246.647 1517.77 248.644 1523.72 253.022 1523.72 253.022 1524.46 247.443 1519.43 239.25 1514.78 231.665 1510.26 226.572 1513.42 227.12 1519.13 228.109 1525.04 238.384 1524.08 235.328 1519.39 220.328 1524.04 209.34 1532.92 217.999 1558.03 242.481 1534.02 257.969 1501.76 257.035 1476.03 256.29 1522.33 329.848 1459.9 319.829 1447.4 317.823 1441.58 331.528 1433.84 346.826 1429.23 355.947 1425.2 361.237 1429.65 368.169 1436.18 378.33 1448.53 398.842 1460.81 386.318 1465.84 381.183 1462.43 373.674 1449.06 366.435 1446.53 365.066 1444.92 367.401 1445.78 370.357 1446.14 371.593 1450.19 373.044 1453.43 369.354 1483.39 335.261 1476.44 371.166 1468.1 393.25 1464.68 402.311 1470.2 408.965 1480.12 406.657 1484.46 405.649 1482.92 400.718 1477.85 396.898 1477.85 396.898 1479.73 397.642 1483.68 398.266 1489.25 399.148 1491.15 390.412 1495.16 374.006 1500.55 351.916 1497.5 338.786 1494.43 326.213 1487.07 296.147 1403.76 332.889 1466 257.9 1480.5 240.432 1491.32 242.608 1485.41 246.134 1475.73 251.908 1459.95 236.645 1464.73 229.261 1468.51 223.418 1475.86 233.359 1481.04 232.544 1484.69 231.969 1482.91 241.995 1486.14 239.202 1501.41 225.987 1504.18 207.901 1494.52 195.606 1481.58 179.125 1463.31 181.368 1450.43 200.896 1439.36 217.676 1445.19 232.39 1463.54 239.566 1468.32 241.431 1466.63 244.866 1456.44 249.781 1434.13 260.535 1417.95 259.164 1419.81 248.322 1422.15 234.733 1423.17 239.435 1432.02 244.127 1438.96 247.8 1437.71 215.344 1434.57 174.081 1432.14 142.155 1431.79 106.838 1422.55 70.1064 1419.96 59.8163 1412.51 66.0785 1414.89 85.0643 1417.03 102.104 1421.97 122.164 1420.72 146.354 1420.26 155.336 1422.75 168.782 1431.48 186.666 1439.69 203.504 1442.42 215.945 1437.4 223.24 1430.75 232.896 1428.46 231.499 1430.11 219.865 1430.76 215.294 1427.47 215.856 1422.27 221.689 1422.27 221.689 1424.38 218.76 1426.56 212.112 1428.13 207.288 1425.87 207.214 1421 211.473 1415.3 216.464 1410.6 215.463 1413.35 212.203 1415.82 209.26 1421.57 208.201 1421 203.265 1420.55 199.427 1420.78 192.933 1418.27 182.287 1415.97 172.558 1409.08 155.221 1402.05 127.746 1399.67 118.444 1396.43 107.949 1399.68 95.6418 1402.28 85.8105 1410.07 83.9184 1410.16 91.2639 1410.24 98.0633 1403.11 98.079 1401.32 92.4497 1395.17 73.0754 1395.3 57.0244 1403.69 54.6903 1427.84 47.9727 1441.1 44.335 1439.4 33.7126 1434.85 5.3156 1421.49-5.35813 1402.96 4.70918 1390.89 11.2679 1387.58 37.9325 1390.75 81.5046 1391.81 96.0083 1384.21 81.0071 1354.67 46.8465 1337.5 26.9805 1329.08 36.2709 1346.66 57.9736 1365.34 81.0452 1381.23 97.8631 1384.74 114.156 1387.96 129.134 1382.02 128.746 1372.53 111.602 1366.31 100.367 1358.48 93.429 1348.21 95.0022 1335.31 96.9762 1326.69 96.6734 1321.79 90.4418 1317.19 84.5993 1319.77 52.1165 1313.41 62.8975 1303.4 79.8472 1306.43 94.2828 1301.74 93.3603 1296.69 92.3661 1294.87 71.8548 1295.18 36.812 1295.3 23.5821 1292.23 19.3537 1285.53 24.5904 1279.78 29.0796 1274.98 31.5668 1274.05 29.1508 1271.46 22.4336 1269.54 17.1032 1264.03 15.6523 1260.05 14.6052 1254.6 18.3069 1253.09 26.7794 1250.69 40.3391 1254.25 49.1081 1259.11 49.7633 1263.86 50.4039 1266.58 45.3689 1262.21 41.0076 1259.11 37.9148 1255.61 41.9234 1254.92 47.7571 1254.92 47.7571 1252.46 98.6328 1247.45 155.014 1245.5 176.895 1246.49 189.083 1252.28 190.676 1260.29 192.881 1262.4 186.127 1261.02 171.158 1260.27 162.973 1264.3 184.174 1266.12 184.018 1268.22 183.839 1265.79 175.342 1264.3 159.757 1261.77 133.251 1272.88 69.7636 1278.88 35.8989 1280.7 25.6311 1292.61 36.7166 1288.72 58.8831 1282.7 93.1954 1279.43 107.862 1286.17 110.323 1326.92 125.214 1351.12 142.155 1361.24 155.561 1389.29 192.744 1325.61 341.2 1336.46 377.008 1340.62 390.76 1349.58 380.134 1354.31 352.93 1361.99 308.772 1374.13 253.304 1382.01 185.111 1386.66 144.793 1374.39 122.284 1349.21 117.984 1349.21 117.984 1331.15 114.606 1295.28 106.674 1275.76 102.359 1268.74 115.684 1276.69 147.169 1289.69 198.683 1291.83 235.786 1289.45 260.628 1283.55 321.98 1294.43 348.102 1314.23 346.362 1324.62 345.448 1329.33 315.016 1324.79 247.13 1321.24 193.956 1323.48 164.599 1329.53 170.153 1334.8 174.997 1331.09 191.059 1332.45 211.742 1333.86 233.279 1338.55 246.089 1343.74 250.413 1343.74 250.413 1333.63 253.356 1338.1 257.162 1361.55 277.159 1340.33 254.089 1337.73 280.511 1335.06 307.623 1330.77 330.885 1326.98 350.739 1321.69 378.474 1328.94 394.614 1345.2 402.179 1355.91 407.161 1351.86 411.769 1335.18 409.293 1274.75 400.323 1109.3 356.955 937.839 386.318-183.709 578.383-495.762 448.46-508 346.362M1454.27 390.972C1446.5 423.491 1469.83 417.29 1458.12 389.465M1471.42 407.199C1465.32 420.399 1483.77 422.584 1477.53 407.898" stroke="#0E8FF5" stroke-opacity=".45" stroke-width="1.5" stroke-linecap="round" stroke-linejoin="round"/><path d="M1515.43 214.353C1516.34 186.491 1524.17 156.721 1536.93 124.241 1540.23 115.825 1543.67 109.29 1547.04 111.655 1553.18 115.963 1551.27 122.553 1544.94 124.606 1540.44 126.068 1538.74 118.262 1540.3 103.355 1545.55 53.0844 1557.39 33.0576 1571 26.1035 1583.69 19.6187 1536.1 245.361 1566.26 254.848 1577.18 258.283 1656.53 254.902 1660.83 240.072 1663.41 231.18 1650.08 228.031 1626.39 230.404 1585.75 234.475 1571 249.962 1581.02 278.561 1586.56 294.391 1593.62 304.297 1595.78 324.346 1602.12 383.16 1625.8 403.155 1581.02 412.633 1570 414.966 1576.91 424.483 1589.22 420.112 1594.53 418.227 1607.65 418.405 1614 417.922 1622.34 417.29 1624.23 412.544 1623.84 402.417 1623.37 390.286 1625.4 355.605 1623.41 346.004 1614.47 302.91 1611.99 275.311 1617.28 263.785 1619.81 258.261 1623.87 266.161 1624.93 287.043 1627.63 340.263 1627.39 366.939 1627.39 366.939 1624.35 400.15 1626.32 417.594 1633.4 418.197 1639.22 418.692 1640.2 409.337 1639.78 391.018 1639.19 365.098 1639.59 345.246 1638.51 331.37 1634.99 286.535 1638.94 260.648 1649.98 260.778 1656.52 260.854 1660.8 279.383 1657.64 308.935 1650.03 380.057 1647.2 409.639 1656.18 411.45 1666.51 413.534 1677.97 400.318 1710.15 376.517 1723.11 366.939 1758.65 347.687 1773.79 339.149 1827.28 312.87 1932.77 317.586 2062 476.368M1533.1 204.137C1527.92 186.171 1535.94 163.43 1557.15 135.915" stroke="#0E8FF5" stroke-opacity=".45" stroke-width="1.5" stroke-linecap="round" stroke-linejoin="round"/><path d="M1670.18 249.705C1690.78 251.254 1689.94 242.918 1672.01 220.884C1658.47 204.249 1657.34 192.513 1664.35 192.063C1672.41 191.547 1674.8 203.393 1684.76 218.148C1690.96 227.326 1694.07 199.168 1686.76 144.271C1684.24 125.281 1680.75 115.598 1675.47 119.28C1670.67 122.622 1674.11 133.637 1677.47 129.131C1690.34 111.856 1686.94 80.5578 1672.92 46.4976C1664.62 26.347 1655.8 32.1773 1658.16 59.6306C1659.84 79.2148 1662.35 95.546 1659.07 108.334C1655.67 121.595 1655.78 135.507 1660.89 151.566C1666.82 170.215 1664.58 179.406 1661.07 173.82C1652.82 160.686 1650.65 135.404 1652.51 101.402C1654.18 70.7563 1655.44 48.3869 1647.41 36.8279C1643.87 31.7375 1640.31 56.9477 1643.04 108.515C1645.72 159.194 1650.85 161.119 1602.77 162.692C1577.51 163.517 1570.36 147.885 1579.08 121.466C1585.73 85.9811 1588.26 61.1292 1586.67 46.9104" stroke="#0E8FF5" stroke-opacity=".45" stroke-width="1.5" stroke-linecap="round" stroke-linejoin="round"/></symbol><symbol viewBox="0 0 43 43" fill="none" id="svg-close"><path d="M10.6064 10.6068L31.8196 31.82M10.6064 31.8199L31.8196 10.6067" stroke="#B4B4B4" stroke-width="2" stroke-linecap="round" stroke-linejoin="round"/></symbol><symbol viewBox="0 0 30 22" fill="none" id="svg-glasses"><path d="M29.2589 12.2676L29.2615 12.2663L29.2474 12.2427C29.1274 12.0103 28.9928 11.7882 28.8472 11.5731L22.0015 0.128418L18.4506 2.18757L19.0838 3.30395L21.556 1.86969L25.9583 9.22863C25.2428 8.93948 24.4315 9.10544 23.6177 9.10544C21.3855 9.10544 19.6404 9.85863 18.5113 11.6586H11.4894C10.3602 9.85863 8.61574 9.10544 6.38298 9.10544C5.56851 9.10544 4.73234 8.93948 4.01681 9.22927L8.41915 1.86969L10.8913 3.30395L11.5245 2.18757L7.97362 0.128418L1.12723 11.5737C0.981702 11.7876 0.84766 12.0097 0.72766 12.2414L0.715532 12.2669C0.251489 13.1739 0 14.395 0 15.4884C0 19.0846 2.8883 21.8714 6.38298 21.8714C9.87766 21.8714 12.766 19.0846 12.766 15.4884C12.766 14.7014 12.3772 13.6348 12.1277 12.9352H17.8723C17.6228 13.6348 17.234 14.7014 17.234 15.4884C17.234 19.0846 20.1223 21.8714 23.617 21.8714C27.1117 21.8714 30 19.0846 30 15.4884C30 14.395 29.7236 13.1739 29.2589 12.2676ZM6.38298 20.5948C3.58979 20.5948 1.2766 18.3748 1.2766 15.4884C1.2766 14.6114 1.47 13.5939 1.84085 12.8669L2.19574 12.2733C3.11489 10.938 4.68 10.3814 6.38298 10.3814C9.17617 10.3814 11.4894 12.6014 11.4894 15.4878C11.4894 18.3754 9.17617 20.5948 6.38298 20.5948ZM23.617 20.5948C20.8238 20.5948 18.5106 18.3748 18.5106 15.4884C18.5106 12.602 20.8238 10.382 23.617 10.382C25.3194 10.382 26.8602 10.938 27.7787 12.2733L28.1336 12.8669C28.5045 13.5946 28.7234 14.6114 28.7234 15.4884C28.7234 18.3754 26.4102 20.5948 23.617 20.5948Z" fill="#212121"/></symbol><symbol viewBox="0 0 30 22" fill="none" id="svg-glasses-white"><path d="M29.2589 12.2676L29.2615 12.2663L29.2474 12.2427C29.1274 12.0103 28.9928 11.7882 28.8472 11.5731L22.0015 0.128418L18.4506 2.18757L19.0838 3.30395L21.556 1.86969L25.9583 9.22863C25.2428 8.93948 24.4315 9.10544 23.6177 9.10544C21.3855 9.10544 19.6404 9.85863 18.5113 11.6586H11.4894C10.3602 9.85863 8.61574 9.10544 6.38298 9.10544C5.56851 9.10544 4.73234 8.93948 4.01681 9.22927L8.41915 1.86969L10.8913 3.30395L11.5245 2.18757L7.97362 0.128418L1.12723 11.5737C0.981702 11.7876 0.84766 12.0097 0.72766 12.2414L0.715532 12.2669C0.251489 13.1739 0 14.395 0 15.4884C0 19.0846 2.8883 21.8714 6.38298 21.8714C9.87766 21.8714 12.766 19.0846 12.766 15.4884C12.766 14.7014 12.3772 13.6348 12.1277 12.9352H17.8723C17.6228 13.6348 17.234 14.7014 17.234 15.4884C17.234 19.0846 20.1223 21.8714 23.617 21.8714C27.1117 21.8714 30 19.0846 30 15.4884C30 14.395 29.7236 13.1739 29.2589 12.2676ZM6.38298 20.5948C3.58979 20.5948 1.2766 18.3748 1.2766 15.4884C1.2766 14.6114 1.47 13.5939 1.84085 12.8669L2.19574 12.2733C3.11489 10.938 4.68 10.3814 6.38298 10.3814C9.17617 10.3814 11.4894 12.6014 11.4894 15.4878C11.4894 18.3754 9.17617 20.5948 6.38298 20.5948ZM23.617 20.5948C20.8238 20.5948 18.5106 18.3748 18.5106 15.4884C18.5106 12.602 20.8238 10.382 23.617 10.382C25.3194 10.382 26.8602 10.938 27.7787 12.2733L28.1336 12.8669C28.5045 13.5946 28.7234 14.6114 28.7234 15.4884C28.7234 18.3754 26.4102 20.5948 23.617 20.5948Z" fill="#fff"/></symbol><symbol viewBox="0 0 35 35" fill="none" id="svg-vk"><path d="M17.4996 35C27.1644 35 34.9992 27.165 34.9992 17.5C34.9992 7.83502 27.1644 0 17.4996 0C7.83484 0 0 7.83502 0 17.5C0 27.165 7.83484 35 17.4996 35Z" fill="#1976D2"/><path d="M11.6902 12.6138H9.89074C9.37597 12.6138 9.27344 12.8562 9.27344 13.1236C9.27344 13.5997 9.88332 15.9639 12.115 19.0917C13.6021 21.2272 15.6989 22.3844 17.6058 22.3844C18.7504 22.3844 18.8916 22.1282 18.8916 21.6846V20.0714C18.8916 19.5565 19.0003 19.4541 19.3627 19.4541C19.6289 19.4541 20.0874 19.5877 21.1546 20.6174C22.3755 21.837 22.5767 22.3844 23.264 22.3844H25.0634C25.5782 22.3844 25.8356 22.1282 25.6869 21.6208C25.5245 21.1148 24.9422 20.3812 24.1686 19.5115C23.7487 19.0154 23.119 18.4819 22.929 18.2145C22.6616 17.8708 22.7379 17.7183 22.929 17.4135C22.929 17.4135 25.1221 14.3244 25.3508 13.276C25.4657 12.8949 25.3508 12.6138 24.8072 12.6138H23.0065C22.5491 12.6138 22.338 12.8562 22.223 13.1236C22.223 13.1236 21.3071 15.3542 20.01 16.8036C19.5914 17.2223 19.4002 17.356 19.1715 17.356C19.0566 17.356 18.8916 17.2223 18.8916 16.8411V13.276C18.8916 12.8187 18.7591 12.6138 18.3768 12.6138H15.5477C15.2616 12.6138 15.0904 12.8261 15.0904 13.0273C15.0904 13.4623 15.7389 13.5622 15.8051 14.7818V17.4322C15.8051 18.0133 15.7002 18.1195 15.4715 18.1195C14.8616 18.1195 13.3771 15.8777 12.4962 13.3136C12.3238 12.815 12.15 12.6138 11.6902 12.6138Z" fill="#fff"/></symbol></svg>